<?xml version="1.0" standalone="no"?><!DOCTYPE svg PUBLIC "-//W3C//DTD SVG 1.1//EN"
        "http://www.w3.org/Graphics/SVG/1.1/DTD/svg11.dtd">
<svg t="1673335242977" class="icon" viewBox="0 0 1024 1024" version="1.1" xmlns="http://www.w3.org/2000/svg" p-id="4557"
     xmlns:xlink="http://www.w3.org/1999/xlink" width="200" height="200">
    <path d="M356.6 479.3c6.2 6.2 16.4 6.2 22.6 0l36.8-36.8c6.2-6.2 6.2-16.4 0-22.6s-16.4-6.2-22.6 0l-36.8 36.8c-6.2 6.2-6.2 16.3 0 22.6z"
          p-id="4558"></path>
    <path d="M785.9 406.5L607.7 228.3c-6.2-6.2-16.4-6.2-22.6 0l-128 128c-6.2 6.2-6.2 16.4 0 22.6 6.2 6.2 16.4 6.2 22.6 0l116.7-116.7L752 417.8 405.1 764.6l-175.2 22.2 16.7-150.4 68.4 68.4c6.2 6.2 16.4 6.2 22.6 0 6.2-6.2 6.2-16.4 0-22.6L257 601.6l75.7-75.7c6.2-6.2 6.2-16.4 0-22.6s-16.4-6.2-22.6 0l-87 87c-2.6 2.6-4.2 5.9-4.6 9.5l-22.6 203.6c-0.5 4.8 1.2 9.6 4.6 13.1l0.1 0.1c3.5 3.4 8.4 5.1 13.2 4.5l200.8-25.5c3.5-0.4 6.8-2 9.3-4.6l362-362c6.2-6.2 6.2-16.3 0-22.5zM915.3 277.1L734.9 96.7c-6.2-6.2-16.4-6.2-22.6 0l-84.1 84.1c-6.2 6.2-6.2 16.4 0 22.6l180.3 180.3c6.2 6.2 16.4 6.2 22.6 0l84.1-84.1c6.3-6.2 6.3-16.3 0.1-22.5z m-95.5 72.8L662.1 192.2l61.5-61.5 157.7 157.7-61.5 61.5z"
          p-id="4559"></path>
</svg>