<?xml version="1.0" standalone="no"?><!DOCTYPE svg PUBLIC "-//W3C//DTD SVG 1.1//EN"
        "http://www.w3.org/Graphics/SVG/1.1/DTD/svg11.dtd">
<svg t="1673335056599" class="icon" viewBox="0 0 1024 1024" version="1.1" xmlns="http://www.w3.org/2000/svg" p-id="3426"
     xmlns:xlink="http://www.w3.org/1999/xlink" width="200" height="200">
    <path d="M995.2 396.8c-22.4-9.6-115.2 0-140.8-22.4-19.2-16-19.2-48-25.6-86.4-12.8-67.2-16-83.2-28.8-108.8-44.8-96-153.6-176-249.6-176h-227.2C147.2 0 3.2 147.2 3.2 323.2v377.6C3.2 880 147.2 1024 326.4 1024h371.2c179.2 0 323.2-144 323.2-323.2l3.2-262.4c-3.2 0-3.2-32-28.8-41.6zM329.6 265.6h179.2c35.2 0 60.8 28.8 60.8 60.8 0 35.2-28.8 60.8-60.8 60.8h-179.2c-35.2 0-60.8-28.8-60.8-60.8 0-35.2 25.6-60.8 60.8-60.8z m364.8 492.8H329.6c-35.2 0-60.8-28.8-60.8-60.8 0-35.2 28.8-60.8 60.8-60.8h364.8c35.2 0 60.8 28.8 60.8 60.8 0 32-28.8 60.8-60.8 60.8z"
          fill="#444444" p-id="3427"></path>
</svg>